<svg xmlns="http://www.w3.org/2000/svg" xmlns:xlink="http://www.w3.org/1999/xlink" width="1920" zoomAndPan="magnify" viewBox="0 0 1440 800.24998" height="1067" preserveAspectRatio="xMidYMid meet" version="1.0"><defs><filter x="0%" y="0%" width="100%" height="100%" id="ff7a197405"><feColorMatrix values="0 0 0 0 1 0 0 0 0 1 0 0 0 0 1 0 0 0 1 0" color-interpolation-filters="sRGB"/></filter><clipPath id="e4a35aa499"><path d="M 0.675781 0 L 1439.324219 0 L 1439.324219 799.5 L 0.675781 799.5 Z M 0.675781 0 " clip-rule="nonzero"/></clipPath><clipPath id="cf7b3ef28c"><path d="M 0.675781 0 L 1439.324219 0 L 1439.324219 514 L 0.675781 514 Z M 0.675781 0 " clip-rule="nonzero"/></clipPath><mask id="973019188a"><g filter="url(#ff7a197405)"><rect x="-144" width="1728" fill="#000000" y="-80.024998" height="960.299976" fill-opacity="0.32"/></g></mask><clipPath id="93949aab4b"><path d="M 1371 0 L 1439.324219 0 L 1439.324219 134 L 1371 134 Z M 1371 0 " clip-rule="nonzero"/></clipPath><clipPath id="7e5cafab12"><path d="M 1370 0 L 1375 0 L 1375 132 L 1370 132 Z M 1370 0 " clip-rule="nonzero"/></clipPath><clipPath id="fccf141da7"><path d="M 1305 0 L 1309 0 L 1309 170 L 1305 170 Z M 1305 0 " clip-rule="nonzero"/></clipPath><clipPath id="8835130850"><path d="M 1240 0 L 1244 0 L 1244 208 L 1240 208 Z M 1240 0 " clip-rule="nonzero"/></clipPath><clipPath id="a4fc5aefed"><path d="M 1109 0 L 1114 0 L 1114 132 L 1109 132 Z M 1109 0 " clip-rule="nonzero"/></clipPath><clipPath id="0a86be7a47"><path d="M 914 0 L 918 0 L 918 95 L 914 95 Z M 914 0 " clip-rule="nonzero"/></clipPath><clipPath id="80997dfae8"><path d="M 783 0 L 787 0 L 787 95 L 783 95 Z M 783 0 " clip-rule="nonzero"/></clipPath><clipPath id="05fbd91aa8"><path d="M 653 0 L 657 0 L 657 172 L 653 172 Z M 653 0 " clip-rule="nonzero"/></clipPath><clipPath id="92551bc858"><path d="M 718 0 L 722 0 L 722 134 L 718 134 Z M 718 0 " clip-rule="nonzero"/></clipPath><clipPath id="c1745b0027"><path d="M 392 0 L 396 0 L 396 95 L 392 95 Z M 392 0 " clip-rule="nonzero"/></clipPath><clipPath id="a76e499d0f"><path d="M 0.675781 168.089844 L 135 168.089844 L 135 510.601562 L 0.675781 510.601562 Z M 0.675781 168.089844 " clip-rule="nonzero"/></clipPath><clipPath id="423c2941b5"><path d="M 0.675781 0 L 134 0 L 134 172 L 0.675781 172 Z M 0.675781 0 " clip-rule="nonzero"/></clipPath><clipPath id="a6148cffc8"><path d="M 1174 0 L 1179 0 L 1179 96 L 1174 96 Z M 1174 0 " clip-rule="nonzero"/></clipPath><clipPath id="9b4b02ae59"><path d="M 587 0 L 592 0 L 592 58 L 587 58 Z M 587 0 " clip-rule="nonzero"/></clipPath><clipPath id="ca0f6d3778"><path d="M 457 0 L 461 0 L 461 58 L 457 58 Z M 457 0 " clip-rule="nonzero"/></clipPath><clipPath id="7118c1a98b"><path d="M 196 0 L 200 0 L 200 132 L 196 132 Z M 196 0 " clip-rule="nonzero"/></clipPath><clipPath id="a9795db91a"><path d="M 131 0 L 135 0 L 135 96 L 131 96 Z M 131 0 " clip-rule="nonzero"/></clipPath><clipPath id="8ada11c08f"><path d="M 65 0 L 70 0 L 70 132 L 65 132 Z M 65 0 " clip-rule="nonzero"/></clipPath><clipPath id="8d5c893afa"><path d="M 1305 130 L 1439.324219 130 L 1439.324219 285 L 1305 285 Z M 1305 130 " clip-rule="nonzero"/></clipPath><clipPath id="ce2440685a"><rect x="0" width="1440" y="0" height="514"/></clipPath><clipPath id="f917d9d353"><path d="M 448.855469 688.421875 L 592 688.421875 L 592 750.679688 L 448.855469 750.679688 Z M 448.855469 688.421875 " clip-rule="nonzero"/></clipPath><clipPath id="ed7ad282ca"><path d="M 479.980469 688.421875 L 560.867188 688.421875 C 578.058594 688.421875 591.996094 702.359375 591.996094 719.550781 C 591.996094 736.742188 578.058594 750.679688 560.867188 750.679688 L 479.980469 750.679688 C 462.789062 750.679688 448.855469 736.742188 448.855469 719.550781 C 448.855469 702.359375 462.789062 688.421875 479.980469 688.421875 Z M 479.980469 688.421875 " clip-rule="nonzero"/></clipPath></defs><g clip-path="url(#e4a35aa499)"><path fill="#ffffff" d="M 0.675781 0 L 1439.324219 0 L 1439.324219 799.5 L 0.675781 799.5 Z M 0.675781 0 " fill-opacity="1" fill-rule="nonzero"/><path fill="#f2f2f5" d="M 0.675781 0 L 1439.324219 0 L 1439.324219 799.5 L 0.675781 799.5 Z M 0.675781 0 " fill-opacity="1" fill-rule="nonzero"/></g><g clip-path="url(#cf7b3ef28c)"><g mask="url(#973019188a)"><g transform="matrix(1, 0, 0, 1, 0.000000000000000111, 0)"><g clip-path="url(#ce2440685a)"><path fill="#ebe8e8" d="M 1436.683594 246.40625 L 1370.707031 208.304688 L 1370.707031 131.988281 L 1374.082031 131.988281 L 1374.082031 206.347656 L 1436.683594 242.496094 L 1436.683594 246.40625 " fill-opacity="1" fill-rule="nonzero"/><path fill="#ebe8e8" d="M 1306.308594 243.527344 L 1371.539062 205.867188 L 1373.238281 208.789062 L 1308.003906 246.453125 L 1306.308594 243.527344 " fill-opacity="1" fill-rule="nonzero"/><path fill="#ebe8e8" d="M 1371.539062 205.867188 L 1436.742188 168.222656 L 1436.742188 172.125 L 1373.238281 208.789062 L 1371.539062 205.867188 " fill-opacity="1" fill-rule="nonzero"/><g clip-path="url(#93949aab4b)"><path fill="#ebe8e8" d="M 1371.550781 130.527344 L 1435.929688 93.359375 L 1437.605469 -56.316406 L 1439.324219 95.304688 L 1373.238281 133.460938 L 1371.550781 130.527344 " fill-opacity="1" fill-rule="nonzero"/></g><g clip-path="url(#7e5cafab12)"><path fill="#ebe8e8" d="M 1372.394531 -56.328125 L 1374.082031 131.988281 L 1370.707031 131.988281 L 1372.394531 -56.328125 " fill-opacity="1" fill-rule="nonzero"/></g><g clip-path="url(#fccf141da7)"><path fill="#ebe8e8" d="M 1305.464844 168.683594 L 1307.148438 -56.328125 L 1308.847656 169.664062 L 1305.464844 168.683594 " fill-opacity="1" fill-rule="nonzero"/></g><path fill="#ebe8e8" d="M 1178.367188 319.351562 L 1241.914062 356.035156 L 1305.453125 319.351562 L 1305.453125 245.957031 L 1178.367188 172.585938 Z M 1241.074219 359.453125 L 1174.984375 321.292969 C 1174.929688 269.773438 1174.960938 218.25 1174.984375 166.730469 C 1219.59375 192.5 1264.203125 218.285156 1308.847656 244.023438 L 1308.847656 321.292969 L 1241.914062 359.9375 L 1241.074219 359.453125 " fill-opacity="1" fill-rule="nonzero"/><path fill="#ebe8e8" d="M 1308.003906 246.453125 L 1242.757812 284.113281 L 1241.074219 281.191406 L 1306.308594 243.527344 L 1308.003906 246.453125 " fill-opacity="1" fill-rule="nonzero"/><path fill="#ebe8e8" d="M 1177.511719 243.527344 L 1242.757812 281.191406 L 1241.074219 284.113281 L 1175.839844 246.453125 L 1177.511719 243.527344 " fill-opacity="1" fill-rule="nonzero"/><path fill="#ebe8e8" d="M 1306.308594 321.789062 L 1241.074219 284.113281 L 1242.757812 281.191406 L 1308.003906 318.855469 L 1306.308594 321.789062 " fill-opacity="1" fill-rule="nonzero"/><path fill="#ebe8e8" d="M 1175.828125 318.855469 L 1241.074219 281.191406 L 1242.757812 284.113281 L 1177.523438 321.789062 L 1175.828125 318.855469 " fill-opacity="1" fill-rule="nonzero"/><path fill="#ebe8e8" d="M 1240.230469 282.652344 L 1240.230469 207.328125 L 1243.601562 207.328125 L 1243.601562 282.652344 L 1240.230469 282.652344 " fill-opacity="1" fill-rule="nonzero"/><g clip-path="url(#8835130850)"><path fill="#ebe8e8" d="M 1240.230469 207.328125 L 1241.914062 -56.328125 L 1243.601562 207.328125 L 1240.230469 207.328125 " fill-opacity="1" fill-rule="nonzero"/></g><path fill="#ebe8e8" d="M 1049.574219 169.664062 L 1111.4375 205.382812 L 1173.300781 169.664062 L 1111.4375 133.945312 Z M 1110.59375 208.789062 L 1042.820312 169.664062 L 1111.4375 130.042969 L 1180.054688 169.664062 L 1111.4375 209.269531 L 1110.59375 208.789062 " fill-opacity="1" fill-rule="nonzero"/><path fill="#ebe8e8" d="M 1174.984375 169.664062 L 1174.984375 94.324219 L 1178.367188 94.324219 L 1178.367188 169.664062 L 1174.984375 169.664062 " fill-opacity="1" fill-rule="nonzero"/><path fill="#ebe8e8" d="M 1110.582031 130.527344 L 1175.828125 92.863281 L 1177.523438 95.785156 L 1112.28125 133.460938 L 1110.582031 130.527344 " fill-opacity="1" fill-rule="nonzero"/><path fill="#ebe8e8" d="M 1047.035156 246.453125 L 980.957031 284.609375 C 958.636719 271.738281 936.335938 258.847656 914.027344 245.96875 L 914.027344 168.683594 C 936.335938 155.828125 958.636719 142.925781 980.957031 130.042969 C 1003.257812 142.945312 1025.566406 155.828125 1047.890625 168.683594 C 1047.890625 194.445312 1047.867188 220.207031 1047.890625 245.96875 Z M 980.957031 280.710938 L 1044.496094 244.023438 L 1044.496094 170.628906 L 980.957031 133.945312 L 917.410156 170.628906 L 917.410156 244.023438 L 980.957031 280.710938 " fill-opacity="1" fill-rule="nonzero"/><path fill="#ebe8e8" d="M 914.882812 243.527344 L 980.113281 205.867188 L 981.800781 208.789062 L 916.554688 246.453125 L 914.882812 243.527344 " fill-opacity="1" fill-rule="nonzero"/><path fill="#ebe8e8" d="M 1045.347656 246.453125 L 980.113281 208.789062 L 981.800781 205.867188 L 1047.046875 243.527344 L 1045.347656 246.453125 " fill-opacity="1" fill-rule="nonzero"/><path fill="#ebe8e8" d="M 980.105469 208.789062 L 914.871094 171.125 L 916.566406 168.191406 L 981.800781 205.867188 L 980.105469 208.789062 " fill-opacity="1" fill-rule="nonzero"/><path fill="#ebe8e8" d="M 980.105469 205.867188 L 1045.347656 168.191406 L 1047.046875 171.125 L 981.800781 208.789062 L 980.105469 205.867188 " fill-opacity="1" fill-rule="nonzero"/><path fill="#ebe8e8" d="M 979.273438 207.328125 L 979.273438 132 L 982.644531 132 L 982.644531 207.328125 L 979.273438 207.328125 " fill-opacity="1" fill-rule="nonzero"/><g clip-path="url(#a4fc5aefed)"><path fill="#ebe8e8" d="M 1109.738281 132 L 1111.4375 -56.328125 L 1113.121094 132 L 1109.738281 132 " fill-opacity="1" fill-rule="nonzero"/></g><path fill="#ebe8e8" d="M 980.105469 130.527344 L 1045.347656 92.863281 L 1047.046875 95.796875 L 981.800781 133.460938 L 980.105469 130.527344 " fill-opacity="1" fill-rule="nonzero"/><path fill="#ebe8e8" d="M 784.402344 92.863281 L 850.480469 54.71875 C 872.777344 67.609375 895.097656 80.488281 917.410156 93.359375 L 917.410156 170.628906 C 895.109375 183.519531 872.789062 196.390625 850.480469 209.28125 C 828.167969 196.402344 805.859375 183.511719 783.546875 170.628906 L 783.546875 93.359375 Z M 850.480469 58.605469 L 786.929688 95.304688 L 786.929688 168.695312 L 850.480469 205.382812 L 914.027344 168.683594 L 914.027344 95.304688 L 850.480469 58.605469 " fill-opacity="1" fill-rule="nonzero"/><path fill="#ebe8e8" d="M 914.882812 171.125 L 848.792969 132.964844 L 848.792969 56.660156 L 852.164062 56.660156 L 852.164062 131.023438 L 916.554688 168.191406 L 914.882812 171.125 " fill-opacity="1" fill-rule="nonzero"/><path fill="#ebe8e8" d="M 914.871094 92.863281 L 980.957031 54.707031 C 1003.257812 67.597656 1025.566406 80.476562 1047.878906 93.347656 L 1047.878906 169.664062 L 1044.503906 169.664062 L 1044.503906 95.304688 L 980.957031 58.617188 L 916.566406 95.785156 L 914.871094 92.863281 " fill-opacity="1" fill-rule="nonzero"/><g clip-path="url(#0a86be7a47)"><path fill="#ebe8e8" d="M 914.027344 94.324219 L 915.710938 -56.339844 L 917.410156 94.324219 L 914.027344 94.324219 " fill-opacity="1" fill-rule="nonzero"/></g><g clip-path="url(#80997dfae8)"><path fill="#ebe8e8" d="M 783.546875 94.324219 L 785.246094 -56.328125 L 786.929688 94.324219 L 783.546875 94.324219 " fill-opacity="1" fill-rule="nonzero"/></g><path fill="#ebe8e8" d="M 786.929688 169.664062 L 786.929688 319.351562 L 850.480469 356.035156 L 914.027344 319.351562 L 914.027344 244.988281 L 917.410156 244.988281 L 917.410156 321.292969 L 850.480469 359.949219 C 828.167969 347.066406 805.847656 334.199219 783.558594 321.304688 L 783.546875 169.664062 L 786.929688 169.664062 " fill-opacity="1" fill-rule="nonzero"/><path fill="#ebe8e8" d="M 914.882812 321.789062 L 849.636719 284.125 L 851.320312 281.191406 L 916.554688 318.855469 L 914.882812 321.789062 " fill-opacity="1" fill-rule="nonzero"/><path fill="#ebe8e8" d="M 784.402344 318.855469 L 849.636719 281.191406 L 851.320312 284.125 L 786.089844 321.789062 L 784.402344 318.855469 " fill-opacity="1" fill-rule="nonzero"/><path fill="#ebe8e8" d="M 849.636719 281.191406 L 914.871094 243.527344 L 916.566406 246.460938 L 851.320312 284.125 L 849.636719 281.191406 " fill-opacity="1" fill-rule="nonzero"/><path fill="#ebe8e8" d="M 848.792969 282.664062 L 848.792969 207.328125 L 852.164062 207.328125 L 852.164062 282.664062 L 848.792969 282.664062 " fill-opacity="1" fill-rule="nonzero"/><path fill="#ebe8e8" d="M 656.453125 320.328125 L 656.453125 394.6875 L 720 431.375 L 783.546875 394.6875 L 783.546875 320.328125 L 786.929688 320.328125 L 786.929688 396.632812 C 764.632812 409.511719 742.320312 422.40625 720 435.273438 C 697.679688 422.40625 675.378906 409.511719 653.070312 396.632812 L 653.070312 320.328125 L 656.453125 320.328125 " fill-opacity="1" fill-rule="nonzero"/><path fill="#ebe8e8" d="M 653.910156 394.195312 L 719.15625 356.53125 L 720.855469 359.464844 L 655.609375 397.128906 L 653.910156 394.195312 " fill-opacity="1" fill-rule="nonzero"/><path fill="#ebe8e8" d="M 784.390625 397.128906 L 719.15625 359.464844 L 720.855469 356.53125 L 786.089844 394.195312 L 784.390625 397.128906 " fill-opacity="1" fill-rule="nonzero"/><path fill="#ebe8e8" d="M 719.15625 359.464844 L 653.921875 321.789062 L 655.597656 318.855469 L 720.84375 356.53125 L 719.15625 359.464844 " fill-opacity="1" fill-rule="nonzero"/><path fill="#ebe8e8" d="M 719.15625 356.53125 L 784.402344 318.855469 L 786.089844 321.789062 L 720.84375 359.464844 L 719.15625 356.53125 " fill-opacity="1" fill-rule="nonzero"/><path fill="#ebe8e8" d="M 718.3125 357.992188 L 718.3125 282.664062 L 721.6875 282.664062 L 721.695312 357.992188 L 718.3125 357.992188 " fill-opacity="1" fill-rule="nonzero"/><path fill="#ebe8e8" d="M 591.207031 282.664062 L 591.207031 432.351562 L 654.753906 469.039062 L 719.15625 431.859375 L 720.84375 434.789062 L 654.753906 472.9375 C 632.445312 460.070312 610.132812 447.1875 587.824219 434.296875 L 587.835938 282.664062 L 591.207031 282.664062 " fill-opacity="1" fill-rule="nonzero"/><path fill="#ebe8e8" d="M 588.667969 431.859375 L 653.910156 394.195312 L 655.609375 397.128906 L 590.363281 434.789062 L 588.667969 431.859375 " fill-opacity="1" fill-rule="nonzero"/><path fill="#ebe8e8" d="M 720.84375 284.125 L 653.070312 323.25 C 653.058594 296.835938 653.046875 270.4375 653.070312 244.023438 L 721.695312 204.394531 L 721.695312 283.632812 Z M 656.453125 317.40625 L 718.304688 281.699219 L 718.304688 210.261719 L 656.453125 245.96875 L 656.453125 317.40625 " fill-opacity="1" fill-rule="nonzero"/><path fill="#ebe8e8" d="M 719.15625 281.191406 L 784.402344 243.527344 L 786.089844 246.460938 L 720.84375 284.125 L 719.15625 281.191406 " fill-opacity="1" fill-rule="nonzero"/><path fill="#ebe8e8" d="M 784.390625 246.460938 L 719.15625 208.800781 L 720.855469 205.867188 L 786.089844 243.527344 L 784.390625 246.460938 " fill-opacity="1" fill-rule="nonzero"/><path fill="#ebe8e8" d="M 719.15625 205.867188 L 784.402344 168.203125 L 786.089844 171.125 L 720.84375 208.800781 L 719.15625 205.867188 " fill-opacity="1" fill-rule="nonzero"/><path fill="#ebe8e8" d="M 784.390625 171.125 L 719.15625 133.460938 L 720.855469 130.527344 L 786.089844 168.191406 L 784.390625 171.125 " fill-opacity="1" fill-rule="nonzero"/><path fill="#ebe8e8" d="M 719.15625 130.527344 L 784.402344 92.863281 L 786.078125 95.785156 L 720.84375 133.460938 L 719.15625 130.527344 " fill-opacity="1" fill-rule="nonzero"/><path fill="#ebe8e8" d="M 718.3125 207.328125 L 718.3125 132 L 721.6875 132 L 721.6875 207.328125 L 718.3125 207.328125 " fill-opacity="1" fill-rule="nonzero"/><g clip-path="url(#05fbd91aa8)"><path fill="#ebe8e8" d="M 653.070312 169.664062 L 654.753906 -56.328125 L 656.453125 169.664062 L 654.6875 171.058594 L 653.070312 169.664062 " fill-opacity="1" fill-rule="nonzero"/></g><g clip-path="url(#92551bc858)"><path fill="#ebe8e8" d="M 718.3125 132 L 720 -56.339844 L 721.6875 131.988281 L 719.855469 133.496094 L 718.3125 132 " fill-opacity="1" fill-rule="nonzero"/></g><path fill="#ebe8e8" d="M 653.910156 321.789062 L 588.667969 284.125 L 590.375 281.191406 L 655.609375 318.855469 L 653.910156 321.789062 " fill-opacity="1" fill-rule="nonzero"/><path fill="#ebe8e8" d="M 588.667969 281.191406 L 653.910156 243.527344 L 655.609375 246.460938 L 590.375 284.125 L 588.667969 281.191406 " fill-opacity="1" fill-rule="nonzero"/><path fill="#ebe8e8" d="M 462.425781 282.664062 L 524.289062 318.371094 L 586.148438 282.664062 L 524.289062 246.945312 Z M 523.445312 321.789062 L 455.671875 282.652344 L 524.289062 243.046875 C 547.148438 256.261719 570.03125 269.457031 592.902344 282.652344 L 524.289062 322.273438 L 523.445312 321.789062 " fill-opacity="1" fill-rule="nonzero"/><path fill="#ebe8e8" d="M 587.835938 282.664062 L 587.824219 56.660156 L 591.207031 56.660156 L 591.207031 282.664062 L 587.835938 282.664062 " fill-opacity="1" fill-rule="nonzero"/><path fill="#ebe8e8" d="M 457.355469 282.664062 L 457.355469 56.671875 L 460.726562 56.671875 L 460.738281 282.664062 L 457.355469 282.664062 " fill-opacity="1" fill-rule="nonzero"/><path fill="#ebe8e8" d="M 653.910156 246.460938 L 588.667969 208.800781 L 590.375 205.867188 L 655.609375 243.527344 L 653.910156 246.460938 " fill-opacity="1" fill-rule="nonzero"/><path fill="#ebe8e8" d="M 523.445312 243.527344 L 588.679688 205.867188 L 590.363281 208.800781 L 525.117188 246.460938 L 523.445312 243.527344 " fill-opacity="1" fill-rule="nonzero"/><path fill="#ebe8e8" d="M 588.679688 205.867188 L 653.921875 168.203125 L 655.597656 171.125 L 590.363281 208.800781 L 588.679688 205.867188 " fill-opacity="1" fill-rule="nonzero"/><path fill="#ebe8e8" d="M 588.679688 208.800781 L 458.199219 133.460938 L 459.886719 130.527344 L 590.363281 205.867188 L 588.679688 208.800781 " fill-opacity="1" fill-rule="nonzero"/><path fill="#ebe8e8" d="M 458.199219 130.527344 L 588.679688 55.199219 L 590.363281 58.121094 L 459.886719 133.460938 L 458.199219 130.527344 " fill-opacity="1" fill-rule="nonzero"/><path fill="#ebe8e8" d="M 459.886719 359.464844 L 393.808594 397.609375 C 371.488281 384.742188 349.175781 371.859375 326.878906 358.96875 C 326.832031 307.449219 326.878906 255.925781 326.878906 204.40625 C 371.496094 230.164062 416.105469 255.960938 460.738281 281.6875 L 460.738281 358.96875 Z M 393.808594 393.710938 L 457.355469 357.023438 L 457.355469 283.632812 L 330.25 210.25 L 330.25 357.015625 L 393.808594 393.710938 " fill-opacity="1" fill-rule="nonzero"/><path fill="#ebe8e8" d="M 327.71875 356.53125 L 392.964844 318.855469 L 394.652344 321.789062 L 329.40625 359.464844 L 327.71875 356.53125 " fill-opacity="1" fill-rule="nonzero"/><path fill="#ebe8e8" d="M 458.199219 359.464844 L 392.964844 321.789062 L 394.652344 318.855469 L 459.894531 356.53125 L 458.199219 359.464844 " fill-opacity="1" fill-rule="nonzero"/><path fill="#ebe8e8" d="M 392.121094 320.328125 L 392.121094 244.988281 L 395.492188 244.988281 L 395.492188 320.328125 L 392.121094 320.328125 " fill-opacity="1" fill-rule="nonzero"/><path fill="#ebe8e8" d="M 327.71875 205.867188 L 458.199219 130.527344 L 459.894531 133.460938 L 329.417969 208.800781 L 327.71875 205.867188 " fill-opacity="1" fill-rule="nonzero"/><path fill="#ebe8e8" d="M 392.121094 244.988281 L 392.121094 169.664062 L 395.492188 169.664062 L 395.492188 244.988281 L 392.121094 244.988281 " fill-opacity="1" fill-rule="nonzero"/><path fill="#ebe8e8" d="M 392.121094 169.664062 L 392.121094 94.335938 L 395.492188 94.335938 L 395.492188 169.664062 L 392.121094 169.664062 " fill-opacity="1" fill-rule="nonzero"/><path fill="#ebe8e8" d="M 392.953125 92.863281 L 458.199219 55.199219 L 459.894531 58.121094 L 394.652344 95.796875 L 392.953125 92.863281 " fill-opacity="1" fill-rule="nonzero"/><path fill="#ebe8e8" d="M 327.71875 130.527344 L 392.964844 92.863281 L 394.652344 95.796875 L 329.40625 133.460938 L 327.71875 130.527344 " fill-opacity="1" fill-rule="nonzero"/><path fill="#ebe8e8" d="M 326.878906 207.328125 L 326.878906 56.660156 L 330.25 56.660156 L 330.25 207.328125 L 326.878906 207.328125 " fill-opacity="1" fill-rule="nonzero"/><g clip-path="url(#c1745b0027)"><path fill="#ebe8e8" d="M 392.121094 94.335938 L 393.808594 -56.328125 L 395.492188 94.335938 L 392.121094 94.335938 " fill-opacity="1" fill-rule="nonzero"/></g><path fill="#ebe8e8" d="M 199.78125 282.664062 L 199.78125 357.023438 L 263.316406 393.710938 L 327.71875 356.53125 L 329.40625 359.464844 L 263.316406 397.609375 C 241.007812 384.742188 218.707031 371.851562 196.398438 358.96875 L 196.398438 282.664062 L 199.78125 282.664062 " fill-opacity="1" fill-rule="nonzero"/><path fill="#ebe8e8" d="M 134.535156 244.988281 L 134.535156 394.6875 L 198.085938 431.375 L 262.484375 394.195312 L 264.171875 397.128906 L 198.085938 435.273438 L 131.152344 396.632812 L 131.152344 244.988281 L 134.535156 244.988281 " fill-opacity="1" fill-rule="nonzero"/><g clip-path="url(#a76e499d0f)"><path fill="#ebe8e8" d="M 4.058594 470.015625 L 67.617188 506.710938 L 131.152344 470.027344 L 131.152344 395.65625 L 134.546875 395.65625 L 134.546875 471.960938 C 112.226562 484.851562 89.925781 497.730469 67.617188 510.601562 C 46.980469 498.710938 21.289062 483.886719 0.675781 471.960938 L 0.675781 244.035156 L 132.007812 168.191406 L 133.691406 171.125 L 4.058594 245.980469 L 4.058594 470.015625 " fill-opacity="1" fill-rule="nonzero"/></g><path fill="#ebe8e8" d="M 3.148438 468.589844 L 66.761719 431.867188 L 68.449219 434.789062 L 3.148438 472.5 L 3.148438 468.589844 " fill-opacity="1" fill-rule="nonzero"/><path fill="#ebe8e8" d="M 132.007812 472.453125 L 66.761719 434.789062 L 68.449219 431.867188 L 133.683594 469.519531 L 132.007812 472.453125 " fill-opacity="1" fill-rule="nonzero"/><path fill="#ebe8e8" d="M 65.917969 433.328125 L 65.917969 357.992188 L 69.292969 357.992188 L 69.292969 433.328125 L 65.917969 433.328125 " fill-opacity="1" fill-rule="nonzero"/><path fill="#ebe8e8" d="M 327.71875 359.464844 L 197.242188 284.125 L 198.9375 281.191406 L 329.417969 356.53125 L 327.71875 359.464844 " fill-opacity="1" fill-rule="nonzero"/><path fill="#ebe8e8" d="M 132.007812 394.195312 L 262.476562 318.855469 L 264.171875 321.789062 L 133.691406 397.128906 L 132.007812 394.195312 " fill-opacity="1" fill-rule="nonzero"/><path fill="#ebe8e8" d="M 261.632812 320.316406 L 261.632812 244.988281 L 265.003906 244.988281 L 265.015625 320.316406 L 261.632812 320.316406 " fill-opacity="1" fill-rule="nonzero"/><path fill="#ebe8e8" d="M 197.242188 281.191406 L 327.71875 205.867188 L 329.417969 208.789062 L 198.9375 284.125 L 197.242188 281.191406 " fill-opacity="1" fill-rule="nonzero"/><path fill="#ebe8e8" d="M 327.71875 208.789062 L 197.242188 133.460938 L 198.9375 130.527344 L 329.417969 205.867188 L 327.71875 208.789062 " fill-opacity="1" fill-rule="nonzero"/><path fill="#ebe8e8" d="M 196.398438 282.664062 L 196.398438 132 L 199.78125 132 L 199.78125 282.664062 L 196.398438 282.664062 " fill-opacity="1" fill-rule="nonzero"/><path fill="#ebe8e8" d="M 262.476562 168.203125 L 327.71875 130.527344 L 329.40625 133.460938 L 264.171875 171.125 L 262.476562 168.203125 " fill-opacity="1" fill-rule="nonzero"/><path fill="#ebe8e8" d="M 261.632812 244.988281 L 261.632812 169.664062 L 265.003906 169.664062 L 265.003906 244.988281 L 261.632812 244.988281 " fill-opacity="1" fill-rule="nonzero"/><path fill="#ebe8e8" d="M 197.242188 130.527344 L 328.5625 54.71875 L 459.894531 130.527344 L 458.199219 133.460938 L 328.5625 58.617188 L 198.9375 133.460938 L 197.242188 130.527344 " fill-opacity="1" fill-rule="nonzero"/><path fill="#ebe8e8" d="M 261.632812 169.664062 L 261.632812 94.324219 L 265.003906 94.324219 L 265.003906 169.664062 L 261.632812 169.664062 " fill-opacity="1" fill-rule="nonzero"/><path fill="#ebe8e8" d="M 197.242188 359.464844 L 132.007812 321.789062 L 133.691406 318.855469 L 198.9375 356.53125 L 197.242188 359.464844 " fill-opacity="1" fill-rule="nonzero"/><path fill="#ebe8e8" d="M 66.761719 431.867188 L 132.007812 394.195312 L 133.683594 397.128906 L 68.449219 434.789062 L 66.761719 431.867188 " fill-opacity="1" fill-rule="nonzero"/><path fill="#ebe8e8" d="M 66.761719 356.53125 L 132.007812 318.855469 L 133.691406 321.789062 L 68.460938 359.464844 L 66.761719 356.53125 " fill-opacity="1" fill-rule="nonzero"/><path fill="#ebe8e8" d="M 66.761719 359.464844 L 2.335938 322.261719 L 2.335938 318.359375 L 68.449219 356.53125 L 66.761719 359.464844 " fill-opacity="1" fill-rule="nonzero"/><path fill="#ebe8e8" d="M 132.007812 321.789062 L 3.148438 247.394531 L 3.148438 243.496094 L 133.691406 318.855469 L 132.007812 321.789062 " fill-opacity="1" fill-rule="nonzero"/><path fill="#ebe8e8" d="M 132.007812 243.527344 L 197.242188 205.867188 L 198.9375 208.800781 L 133.691406 246.460938 L 132.007812 243.527344 " fill-opacity="1" fill-rule="nonzero"/><path fill="#ebe8e8" d="M 131.152344 244.988281 L 131.152344 94.324219 L 134.535156 94.324219 L 134.535156 244.988281 L 131.152344 244.988281 " fill-opacity="1" fill-rule="nonzero"/><path fill="#ebe8e8" d="M 197.242188 208.800781 L 132.007812 171.125 L 133.691406 168.203125 L 198.9375 205.867188 L 197.242188 208.800781 " fill-opacity="1" fill-rule="nonzero"/><path fill="#ebe8e8" d="M 132.007812 168.203125 L 197.242188 130.527344 L 198.9375 133.460938 L 133.691406 171.125 L 132.007812 168.203125 " fill-opacity="1" fill-rule="nonzero"/><path fill="#ebe8e8" d="M 65.917969 282.664062 L 65.917969 207.328125 L 69.300781 207.328125 L 69.300781 282.664062 L 65.917969 282.664062 " fill-opacity="1" fill-rule="nonzero"/><path fill="#ebe8e8" d="M 65.917969 207.328125 L 65.917969 132 L 69.292969 132 L 69.300781 207.328125 L 65.917969 207.328125 " fill-opacity="1" fill-rule="nonzero"/><g clip-path="url(#423c2941b5)"><path fill="#ebe8e8" d="M 132.007812 171.125 L 0.675781 95.304688 L 2.359375 -56.339844 L 4.035156 93.335938 L 133.691406 168.191406 L 132.007812 171.125 " fill-opacity="1" fill-rule="nonzero"/></g><path fill="#ebe8e8" d="M 66.761719 130.527344 L 132.007812 92.863281 L 133.691406 95.796875 L 68.460938 133.460938 L 66.761719 130.527344 " fill-opacity="1" fill-rule="nonzero"/><g clip-path="url(#a6148cffc8)"><path fill="#ebe8e8" d="M 1174.984375 94.324219 L 1176.671875 -56.328125 L 1178.367188 94.324219 L 1176.445312 95.582031 L 1174.984375 94.324219 " fill-opacity="1" fill-rule="nonzero"/></g><path fill="#ebe8e8" d="M 653.070312 244.988281 L 653.070312 169.664062 L 656.453125 169.664062 L 656.453125 244.988281 L 653.070312 244.988281 " fill-opacity="1" fill-rule="nonzero"/><g clip-path="url(#9b4b02ae59)"><path fill="#ebe8e8" d="M 587.824219 56.660156 L 589.519531 -56.328125 L 591.207031 56.660156 L 589.5 57.941406 L 587.824219 56.660156 " fill-opacity="1" fill-rule="nonzero"/></g><g clip-path="url(#ca0f6d3778)"><path fill="#ebe8e8" d="M 457.355469 56.671875 L 459.042969 -56.328125 L 460.726562 56.671875 L 458.929688 57.796875 L 457.355469 56.671875 " fill-opacity="1" fill-rule="nonzero"/></g><g clip-path="url(#7118c1a98b)"><path fill="#ebe8e8" d="M 196.398438 132 L 198.085938 -56.328125 L 199.78125 132 L 196.398438 132 " fill-opacity="1" fill-rule="nonzero"/></g><g clip-path="url(#a9795db91a)"><path fill="#ebe8e8" d="M 131.152344 94.324219 L 132.851562 -56.328125 L 134.535156 94.324219 L 132.714844 95.730469 L 131.152344 94.324219 " fill-opacity="1" fill-rule="nonzero"/></g><g clip-path="url(#8ada11c08f)"><path fill="#ebe8e8" d="M 65.917969 132 L 67.617188 -56.328125 L 69.292969 132 L 65.917969 132 " fill-opacity="1" fill-rule="nonzero"/></g><g clip-path="url(#8d5c893afa)"><path fill="#ebe8e8" d="M 1439.324219 245.957031 C 1418.703125 257.859375 1393.019531 272.707031 1372.394531 284.609375 C 1350.074219 271.738281 1327.761719 258.859375 1305.464844 245.957031 C 1305.441406 220.207031 1305.441406 194.445312 1305.464844 168.683594 L 1306.308594 168.191406 L 1372.394531 130.042969 C 1393.007812 141.957031 1418.703125 156.792969 1439.324219 168.683594 C 1439.324219 194.445312 1439.324219 220.207031 1439.324219 245.957031 Z M 1435.929688 244.023438 L 1435.929688 170.628906 L 1372.394531 133.945312 L 1308.847656 170.640625 L 1308.847656 244.023438 L 1372.394531 280.710938 L 1435.929688 244.023438 " fill-opacity="1" fill-rule="evenodd"/></g></g></g></g></g><g clip-path="url(#f917d9d353)"><g clip-path="url(#ed7ad282ca)"><path fill="#f2f2f5" d="M 448.855469 688.421875 L 592.089844 688.421875 L 592.089844 750.679688 L 448.855469 750.679688 Z M 448.855469 688.421875 " fill-opacity="1" fill-rule="nonzero"/></g></g></svg>